# Blender v2.76 (sub 0) OBJ File: 'Sign_Triangle.blend'
# www.blender.org
mtllib Sign_Triangle.mtl
o Triangle_Cylinder.001
v 0.026929 0.534466 -0.006744
v 0.026929 0.534466 0.006702
v 0.005326 0.534466 0.006702
v 0.005326 0.534466 -0.006744
v 0.026929 0.411931 0.077448
v 0.026929 0.400286 0.070724
v 0.005326 0.400286 0.070724
v 0.005326 0.411931 0.077448
v 0.026929 0.400286 -0.070767
v 0.026929 0.411931 -0.077490
v 0.005326 0.411931 -0.077490
v 0.005326 0.400286 -0.070767
v 0.026929 0.514766 0.005154
v 0.026929 0.514766 -0.005197
v 0.026929 0.411476 0.054438
v 0.026929 0.420440 0.059614
v 0.026929 0.420440 -0.059656
v 0.026929 0.411476 -0.054480
v 0.020002 0.514766 0.005154
v 0.020002 0.514766 -0.005197
v 0.020002 0.411476 0.054438
v 0.020002 0.420440 0.059614
v 0.020002 0.420440 -0.059656
v 0.020002 0.411476 -0.054480
v -0.007605 0.000039 0.000000
v -0.007605 0.470810 0.000000
v -0.002350 0.000039 -0.007233
v -0.002350 0.470810 -0.007233
v 0.006153 0.000039 -0.004470
v 0.006153 0.470810 -0.004470
v 0.006153 0.000039 0.004470
v 0.006153 0.470810 0.004470
v -0.002350 0.000039 0.007233
v -0.002350 0.470810 0.007233
vn -0.809000 0.000000 -0.587800
vn 0.309000 0.000000 -0.951100
vn 1.000000 0.000000 -0.000000
vn 0.000000 1.000000 -0.000000
vn -0.809000 0.000000 0.587800
vn 0.309000 0.000000 0.951100
vn 0.000000 -1.000000 -0.000000
vn 0.000000 0.500000 -0.866000
vn -1.000000 -0.000000 0.000000
vn 0.000000 0.500000 0.866000
vn 0.000000 -0.500000 0.866000
vn 0.000000 -0.500000 -0.866000
usemtl Pole.001
s off
f 25//1 26//1 28//1 27//1
f 27//2 28//2 30//2 29//2
f 29//3 30//3 32//3 31//3
f 28//4 26//4 34//4 32//4 30//4
f 33//5 34//5 26//5 25//5
f 31//6 32//6 34//6 33//6
f 25//7 27//7 29//7 31//7 33//7
usemtl White.001
f 20//3 19//3 22//3 21//3 24//3 23//3
usemtl Yellow
f 10//8 11//8 4//8 1//8
f 7//9 8//9 3//9 4//9 11//9 12//9
f 6//7 7//7 12//7 9//7
f 2//10 3//10 8//10 5//10
f 1//4 4//4 3//4 2//4
f 7//11 6//11 5//11 8//11
f 11//12 10//12 9//12 12//12
f 6//3 9//3 18//3 15//3
f 18//10 17//10 23//10 24//10
f 10//3 1//3 14//3 17//3
f 9//3 10//3 17//3 18//3
f 5//3 6//3 15//3 16//3
f 2//3 5//3 16//3 13//3
f 1//3 2//3 13//3 14//3
f 14//7 13//7 19//7 20//7
f 15//4 18//4 24//4 21//4
f 17//11 14//11 20//11 23//11
f 16//8 15//8 21//8 22//8
f 13//12 16//12 22//12 19//12
