# Blender v2.76 (sub 0) OBJ File: 'Sign_Stop.blend'
# www.blender.org
mtllib Sign_Stop.mtl
o Stop_Cylinder
v 0.005366 0.445220 -0.029620
v 0.005366 0.445220 -0.037192
v 0.005366 0.464840 -0.037192
v 0.005366 0.465012 -0.043911
v 0.005366 0.469370 -0.051073
v 0.005366 0.487336 -0.051496
v 0.005366 0.492981 -0.045569
v 0.005366 0.493410 -0.029620
v 0.005366 0.471725 -0.037192
v 0.005366 0.486526 -0.037192
v 0.005366 0.486198 -0.043097
v 0.005366 0.479125 -0.044984
v 0.005366 0.472052 -0.043097
v 0.005366 0.444002 -0.014088
v 0.005366 0.450044 -0.023730
v 0.005366 0.487781 -0.023936
v 0.005366 0.493414 -0.018212
v 0.005366 0.493986 -0.010201
v 0.005366 0.489350 -0.002561
v 0.005366 0.449280 -0.002561
v 0.005366 0.451242 -0.013402
v 0.005366 0.453056 -0.009489
v 0.005366 0.485574 -0.009489
v 0.005366 0.487388 -0.013402
v 0.005366 0.485282 -0.016652
v 0.005366 0.453348 -0.016652
v 0.005366 0.445220 0.017056
v 0.005366 0.445220 0.009484
v 0.005366 0.486526 0.009484
v 0.005366 0.486526 0.001567
v 0.005366 0.493410 0.001567
v 0.005366 0.493410 0.024973
v 0.005366 0.486526 0.024973
v 0.005366 0.486526 0.017056
v 0.005366 0.443997 0.039831
v 0.005366 0.447533 0.030118
v 0.005366 0.456795 0.026930
v 0.005366 0.466699 0.030150
v 0.005366 0.476245 0.039894
v 0.005366 0.482090 0.042376
v 0.005366 0.486218 0.041236
v 0.005366 0.487389 0.038014
v 0.005366 0.485312 0.034897
v 0.005366 0.479986 0.034611
v 0.005366 0.479986 0.027452
v 0.005366 0.488675 0.028205
v 0.005366 0.493610 0.034156
v 0.005366 0.493732 0.042973
v 0.005366 0.488854 0.048560
v 0.005366 0.480116 0.049822
v 0.005366 0.472265 0.046651
v 0.005366 0.462880 0.037009
v 0.005366 0.456748 0.034677
v 0.005366 0.451893 0.036320
v 0.005366 0.451747 0.041161
v 0.005366 0.458894 0.043208
v 0.005366 0.459402 0.049895
v 0.005366 0.449968 0.049133
v 0.011776 0.488675 0.028205
v 0.011776 0.493732 0.042973
v 0.011776 0.486218 0.041236
v 0.011776 0.488854 0.048560
v 0.011776 0.486526 0.001567
v 0.011776 0.486526 0.024973
v 0.011776 0.445220 0.009484
v 0.011776 0.486526 0.009484
v 0.011776 0.487336 -0.051496
v 0.011776 0.486526 -0.037192
v 0.011776 0.487781 -0.023936
v 0.011776 0.489350 -0.002561
v 0.011776 0.451747 0.041161
v 0.011776 0.458894 0.043208
v 0.011776 0.492981 -0.045569
v 0.011776 0.476245 0.039894
v 0.011776 0.472265 0.046651
v 0.011776 0.444002 -0.014088
v 0.011776 0.450044 -0.023730
v 0.011776 0.462880 0.037009
v 0.011776 0.479986 0.034611
v 0.011776 0.479986 0.027452
v 0.011776 0.464840 -0.037192
v 0.011776 0.471725 -0.037192
v 0.011776 0.466699 0.030150
v 0.011776 0.480116 0.049822
v 0.011776 0.445220 -0.029620
v 0.011776 0.445220 -0.037192
v 0.011776 0.486526 0.017056
v 0.011776 0.449968 0.049133
v 0.011776 0.445220 0.017056
v 0.011776 0.493414 -0.018212
v 0.011776 0.485312 0.034897
v 0.011776 0.493610 0.034156
v 0.011776 0.456795 0.026930
v 0.011776 0.451893 0.036320
v 0.011776 0.486198 -0.043097
v 0.011776 0.485282 -0.016652
v 0.011776 0.469370 -0.051073
v 0.011776 0.493986 -0.010201
v 0.011776 0.443997 0.039831
v 0.011776 0.447533 0.030118
v 0.011776 0.493410 0.001567
v 0.011776 0.453348 -0.016652
v 0.011776 0.451242 -0.013402
v 0.011776 0.487388 -0.013402
v 0.011776 0.485574 -0.009489
v 0.011776 0.465012 -0.043911
v 0.011776 0.449280 -0.002561
v 0.011776 0.472052 -0.043097
v 0.011776 0.493410 0.024973
v 0.011776 0.487389 0.038014
v 0.011776 0.456748 0.034677
v 0.011776 0.482090 0.042376
v 0.011776 0.493410 -0.029620
v 0.011776 0.453056 -0.009489
v 0.011776 0.479125 -0.044984
v 0.011776 0.459402 0.049895
v 0.004771 0.439867 -0.069213
v 0.015666 0.439867 -0.069213
v 0.004771 0.399323 -0.028669
v 0.015666 0.399323 -0.028669
v 0.004771 0.399323 0.028669
v 0.015666 0.399323 0.028669
v 0.004771 0.439867 0.069213
v 0.015666 0.439867 0.069213
v 0.004771 0.497205 0.069213
v 0.015666 0.497205 0.069213
v 0.004771 0.537748 0.028669
v 0.015666 0.537748 0.028669
v 0.004771 0.537748 -0.028669
v 0.015666 0.537748 -0.028669
v 0.004771 0.497205 -0.069213
v 0.015666 0.497205 -0.069213
v -0.007605 0.000039 0.000000
v -0.007605 0.470810 0.000000
v -0.002350 0.000039 -0.007233
v -0.002350 0.470810 -0.007233
v 0.006153 0.000039 -0.004470
v 0.006153 0.470810 -0.004470
v 0.006153 0.000039 0.004470
v 0.006153 0.470810 0.004470
v -0.002350 0.000039 0.007233
v -0.002350 0.470810 0.007233
v 0.015666 0.410763 -0.023930
v 0.015666 0.444605 -0.057773
v 0.015666 0.410763 0.023930
v 0.015666 0.444605 0.057773
v 0.015666 0.492466 0.057773
v 0.015666 0.526309 0.023930
v 0.015666 0.526309 -0.023930
v 0.015666 0.492466 -0.057773
v 0.008574 0.410763 -0.023930
v 0.008574 0.444605 -0.057773
v 0.008574 0.410763 0.023930
v 0.008574 0.444605 0.057773
v 0.008574 0.492466 0.057773
v 0.008574 0.526309 0.023930
v 0.008574 0.526309 -0.023930
v 0.008574 0.492466 -0.057773
vn -0.809000 0.000000 -0.587800
vn 0.309000 0.000000 -0.951100
vn 1.000000 0.000000 -0.000000
vn 0.000000 1.000000 -0.000000
vn -0.809000 0.000000 0.587800
vn 0.309000 0.000000 0.951100
vn 0.000000 -1.000000 -0.000000
vn -1.000000 0.000000 0.000000
vn 0.000000 0.000000 1.000000
vn 0.000000 0.257900 0.966200
vn 0.000000 -0.907300 -0.420500
vn 0.000000 0.143000 0.989700
vn 0.000000 -0.080500 0.996800
vn 0.000000 0.724100 -0.689700
vn 0.000000 0.390800 -0.920500
vn 0.000000 -0.999700 -0.025600
vn 0.000000 0.000000 -1.000000
vn 0.000000 -0.374500 0.927200
vn 0.000000 -0.854300 -0.519800
vn 0.000000 0.712700 -0.701400
vn 0.000000 -0.325400 -0.945600
vn 0.000000 0.309200 -0.951000
vn 0.000000 0.907300 -0.420500
vn 0.000000 -0.832100 0.554600
vn 0.000000 0.769700 -0.638400
vn 0.000000 -0.939800 -0.341600
vn 0.000000 0.997100 -0.075700
vn 0.000000 0.999500 0.030100
vn 0.000000 -0.998500 0.055500
vn 0.000000 0.086400 -0.996300
vn 0.000000 0.320500 0.947200
vn 0.000000 0.998500 0.055500
vn 0.000000 -0.355500 0.934700
vn 0.000000 0.753300 0.657700
vn 0.000000 -0.053600 0.998600
vn 0.000000 -0.023600 -0.999700
vn 0.000000 0.999900 -0.013800
vn 0.000000 0.855000 0.518700
vn 0.000000 -0.939700 -0.342000
vn 0.000000 0.275400 -0.961300
vn 0.000000 -0.909200 0.416300
vn 0.000000 0.714300 -0.699800
vn 0.000000 -0.005500 -1.000000
vn 0.000000 -0.847300 -0.531000
vn 0.000000 0.997500 -0.071200
vn 0.000000 -0.716600 0.697500
vn 0.000000 -0.257900 0.966200
vn 0.000000 -0.266200 -0.963900
vn 0.000000 0.999600 -0.026900
vn 0.000000 0.839200 0.543900
vn 0.000000 -0.841500 0.540200
vn 0.000000 -0.839200 0.543900
vn 0.000000 -0.707100 -0.707100
vn 0.000000 -0.707100 0.707100
vn 0.000000 0.707100 0.707100
vn 0.000000 0.707100 -0.707100
usemtl Pole
s off
f 133//1 134//1 136//1 135//1
f 135//2 136//2 138//2 137//2
f 137//3 138//3 140//3 139//3
f 136//4 134//4 142//4 140//4 138//4
f 141//5 142//5 134//5 133//5
f 139//6 140//6 142//6 141//6
f 133//7 135//7 137//7 139//7 141//7
usemtl White
f 1//8 8//8 10//8
f 10//8 8//8 7//8
f 10//8 7//8 6//8
f 10//8 6//8 11//8
f 1//8 10//8 9//8
f 12//8 11//8 6//8
f 12//8 6//8 5//8
f 13//8 12//8 5//8
f 1//8 9//8 3//8
f 3//8 9//8 13//8
f 3//8 13//8 5//8
f 3//8 5//8 4//8
f 1//8 3//8 2//8
f 19//8 18//8 17//8
f 19//8 17//8 16//8
f 24//8 19//8 16//8
f 19//8 24//8 23//8
f 25//8 24//8 16//8
f 19//8 23//8 22//8
f 26//8 25//8 16//8
f 20//8 19//8 22//8
f 26//8 16//8 15//8
f 21//8 26//8 15//8
f 20//8 22//8 21//8
f 20//8 21//8 15//8
f 20//8 15//8 14//8
f 33//8 32//8 31//8
f 33//8 31//8 30//8
f 34//9 33//9 30//9
f 27//8 34//8 29//8
f 29//7 34//7 30//7
f 27//8 29//8 28//8
f 48//8 47//8 46//8
f 49//8 48//8 46//8
f 49//8 46//8 42//8
f 49//8 42//8 41//8
f 43//8 42//8 46//8
f 50//8 49//8 41//8
f 50//8 41//8 40//8
f 44//8 43//8 46//8
f 44//8 46//8 45//8
f 50//8 40//8 39//8
f 51//8 50//8 39//8
f 51//8 39//8 38//8
f 52//8 51//8 38//8
f 52//8 38//8 37//8
f 53//8 52//8 37//8
f 58//8 57//8 56//8
f 54//8 53//8 37//8
f 58//8 56//8 55//8
f 54//8 37//8 36//8
f 55//8 54//8 36//8
f 58//8 55//8 36//8
f 35//8 58//8 36//8
f 85//3 68//3 113//3
f 68//3 73//3 113//3
f 68//3 67//3 73//3
f 68//3 95//3 67//3
f 85//3 82//3 68//3
f 115//3 67//3 95//3
f 115//3 97//3 67//3
f 108//3 97//3 115//3
f 85//3 81//3 82//3
f 81//3 108//3 82//3
f 81//3 97//3 108//3
f 81//3 106//3 97//3
f 85//3 86//3 81//3
f 70//3 90//3 98//3
f 70//3 69//3 90//3
f 104//3 69//3 70//3
f 70//3 105//3 104//3
f 96//3 69//3 104//3
f 70//3 114//3 105//3
f 102//3 69//3 96//3
f 107//3 114//3 70//3
f 102//3 77//3 69//3
f 103//3 77//3 102//3
f 107//3 103//3 114//3
f 107//3 77//3 103//3
f 107//3 76//3 77//3
f 64//3 101//3 109//3
f 64//3 63//3 101//3
f 87//9 63//9 64//9
f 89//3 66//3 87//3
f 66//4 63//4 87//4
f 89//3 65//3 66//3
f 60//3 59//3 92//3
f 62//3 59//3 60//3
f 62//3 110//3 59//3
f 62//3 61//3 110//3
f 91//3 59//3 110//3
f 84//3 61//3 62//3
f 84//3 112//3 61//3
f 79//3 59//3 91//3
f 79//3 80//3 59//3
f 84//3 74//3 112//3
f 75//3 74//3 84//3
f 75//3 83//3 74//3
f 78//3 83//3 75//3
f 78//3 93//3 83//3
f 111//3 93//3 78//3
f 88//3 72//3 116//3
f 94//3 93//3 111//3
f 88//3 71//3 72//3
f 94//3 100//3 93//3
f 71//3 100//3 94//3
f 88//3 100//3 71//3
f 99//3 100//3 88//3
f 12//10 13//10 108//10 115//10
f 23//11 24//11 104//11 105//11
f 49//12 50//12 84//12 62//12
f 57//13 58//13 88//13 116//13
f 6//14 7//14 73//14 67//14
f 1//7 2//7 86//7 85//7
f 39//15 40//15 112//15 74//15
f 29//7 30//7 63//7 66//7
f 3//16 4//16 106//16 81//16
f 9//17 10//17 68//17 82//17
f 50//18 51//18 75//18 84//18
f 4//19 5//19 97//19 106//19
f 27//7 28//7 65//7 89//7
f 16//20 17//20 90//20 69//20
f 34//9 27//9 89//9 87//9
f 33//7 34//7 87//7 64//7
f 36//21 37//21 93//21 100//21
f 19//9 20//9 107//9 70//9
f 31//4 32//4 109//4 101//4
f 37//22 38//22 83//22 93//22
f 21//23 22//23 114//23 103//23
f 42//24 43//24 91//24 110//24
f 46//25 47//25 92//25 59//25
f 41//26 42//26 110//26 61//26
f 56//27 57//27 116//27 72//27
f 54//28 55//28 71//28 94//28
f 10//29 11//29 95//29 68//29
f 45//30 46//30 59//30 80//30
f 53//31 54//31 94//31 111//31
f 13//32 9//32 82//32 108//32
f 52//33 53//33 111//33 78//33
f 48//34 49//34 62//34 60//34
f 43//35 44//35 79//35 91//35
f 5//36 6//36 67//36 97//36
f 28//17 29//17 66//17 65//17
f 47//37 48//37 60//37 92//37
f 2//17 3//17 81//17 86//17
f 8//9 1//9 85//9 113//9
f 18//38 19//38 70//38 98//38
f 35//39 36//39 100//39 99//39
f 55//40 56//40 72//40 71//40
f 20//41 14//41 76//41 107//41
f 32//9 33//9 64//9 109//9
f 38//42 39//42 74//42 83//42
f 30//17 31//17 101//17 63//17
f 15//43 16//43 69//43 77//43
f 14//44 15//44 77//44 76//44
f 22//17 23//17 105//17 114//17
f 17//45 18//45 98//45 90//45
f 51//46 52//46 78//46 75//46
f 11//47 12//47 115//47 95//47
f 25//9 26//9 102//9 96//9
f 44//7 45//7 80//7 79//7
f 40//48 41//48 61//48 112//48
f 7//49 8//49 113//49 73//49
f 26//50 21//50 103//50 102//50
f 58//51 35//51 99//51 88//51
f 24//52 25//52 96//52 104//52
f 117//53 118//53 120//53 119//53
f 119//7 120//7 122//7 121//7
f 121//54 122//54 124//54 123//54
f 123//9 124//9 126//9 125//9
f 125//55 126//55 128//55 127//55
f 127//4 128//4 130//4 129//4
f 122//3 120//3 143//3 145//3
f 131//17 132//17 118//17 117//17
f 129//56 130//56 132//56 131//56
f 117//8 119//8 121//8 123//8 125//8 127//8 129//8 131//8
f 145//4 143//4 151//4 153//4
f 128//3 126//3 147//3 148//3
f 118//3 132//3 150//3 144//3
f 120//3 118//3 144//3 143//3
f 124//3 122//3 145//3 146//3
f 130//3 128//3 148//3 149//3
f 126//3 124//3 146//3 147//3
f 132//3 130//3 149//3 150//3
f 150//54 149//54 157//54 158//54
f 148//53 147//53 155//53 156//53
f 146//56 145//56 153//56 154//56
f 143//55 144//55 152//55 151//55
f 144//9 150//9 158//9 152//9
f 149//7 148//7 156//7 157//7
f 147//17 146//17 154//17 155//17
usemtl Red
f 151//3 152//3 158//3 157//3 156//3 155//3 154//3 153//3
