# Blender v2.76 (sub 0) OBJ File: 'Street_Empty_Water.blend'
# www.blender.org
mtllib Street_Empty_Water.mtl
o Street_Water_Cube.036
v 1.000000 -0.100000 -1.000000
v 1.000000 -0.029091 -1.000000
v 0.996694 -0.100000 1.000241
v 0.996694 -0.029091 1.000241
v 1.000000 -0.029091 0.642857
v 1.000000 -0.029091 0.857143
v 1.000000 -0.100000 0.857143
v 1.000000 -0.100000 0.642857
v 1.000000 0.020909 0.857143
v 1.000000 0.020909 0.642857
v 0.996694 0.020909 1.000241
v 1.000000 0.020909 -1.000000
v -1.000000 -0.100000 -1.000000
v -1.000000 -0.029091 -1.000000
v -0.996694 -0.100000 1.000241
v -0.996694 -0.029091 1.000241
v -1.000000 -0.029091 0.642857
v -1.000000 -0.029091 0.857143
v -1.000000 -0.100000 0.857143
v -1.000000 -0.100000 0.642857
v -1.000000 0.020909 0.857143
v -1.000000 0.020909 0.642857
v -0.996694 0.020909 1.000241
v -1.000000 0.020909 -1.000000
vn 1.000000 0.000000 0.000000
vn 0.999700 0.000000 0.023100
vn 0.000000 -1.000000 0.000000
vn -0.999700 0.000000 0.023100
vn 0.000000 0.000000 1.000000
vn -1.000000 -0.000000 0.000000
vn -0.000000 0.000000 -1.000000
vn 0.000000 1.000000 0.000000
usemtl Water
s off
f 5//1 6//1 7//1 8//1
f 6//2 4//2 3//2 7//2
f 6//1 5//1 10//1 9//1
f 13//3 1//3 8//3 20//3
f 5//1 2//1 12//1 10//1
f 2//1 5//1 8//1 1//1
f 4//2 6//2 9//2 11//2
f 16//4 23//4 21//4 18//4
f 23//5 16//5 4//5 11//5
f 17//6 20//6 19//6 18//6
f 12//7 2//7 14//7 24//7
f 18//4 19//4 15//4 16//4
f 18//6 21//6 22//6 17//6
f 13//7 14//7 2//7 1//7
f 19//3 20//3 8//3 7//3
f 22//8 21//8 23//8 11//8 9//8 10//8 12//8 24//8
f 22//6 24//6 14//6 17//6
f 14//6 13//6 20//6 17//6
f 3//3 15//3 19//3 7//3
f 3//5 4//5 16//5 15//5
