# Blender v2.76 (sub 0) OBJ File: 'TrafficLight_2.blend'
# www.blender.org
mtllib TrafficLight_2.mtl
o TrafficLight_2_Cylinder.007
v 0.051464 0.832419 0.598376
v 0.064111 0.845834 0.616018
v 0.051602 0.845834 0.576671
v 0.072150 0.845834 0.591801
v 0.051326 0.867541 0.620082
v 0.064334 0.867541 0.580897
v 0.072065 0.867541 0.605215
v 0.051464 0.880956 0.598376
v 0.058898 0.836043 0.608746
v 0.051333 0.843929 0.619020
v 0.071057 0.843929 0.604881
v 0.063623 0.836043 0.594511
v 0.051545 0.836043 0.585618
v 0.063704 0.843929 0.581753
v 0.071007 0.856687 0.612766
v 0.075732 0.856687 0.598531
v 0.058816 0.856687 0.621504
v 0.071188 0.856687 0.584237
v 0.059110 0.856687 0.575344
v 0.063492 0.869446 0.615155
v 0.051595 0.869446 0.577733
v 0.071138 0.869446 0.592122
v 0.051383 0.877332 0.611135
v 0.063573 0.877332 0.602396
v 0.059029 0.877332 0.588102
v 0.051215 0.856687 0.621456
v 0.051342 0.836043 0.608698
v 0.051609 0.856687 0.575296
v 0.051463 0.877332 0.588054
v 0.051320 0.869238 0.621208
v 0.051466 0.883365 0.598350
v 0.051604 0.871244 0.576611
v 0.051380 0.879548 0.611785
v 0.051203 0.857808 0.622654
v 0.051618 0.857808 0.574045
v 0.051465 0.879548 0.587480
v 0.084666 0.877332 0.611135
v 0.074887 0.867541 0.620082
v 0.087500 0.880956 0.598376
v 0.063565 0.856687 0.621456
v 0.063959 0.856687 0.575296
v 0.075157 0.869446 0.577733
v 0.084747 0.877332 0.588054
v 0.084664 0.879548 0.611785
v 0.074881 0.869238 0.621208
v 0.087501 0.883365 0.598350
v 0.063553 0.857808 0.622654
v 0.063968 0.857808 0.574045
v 0.075165 0.871244 0.576611
v 0.084748 0.879548 0.587480
v 0.051464 0.888459 0.598376
v 0.064111 0.901874 0.616018
v 0.051602 0.901874 0.576671
v 0.072150 0.901874 0.591801
v 0.051326 0.923581 0.620082
v 0.064334 0.923581 0.580897
v 0.072065 0.923581 0.605215
v 0.051464 0.936996 0.598376
v 0.058898 0.892084 0.608746
v 0.051333 0.899969 0.619020
v 0.071057 0.899969 0.604881
v 0.063623 0.892084 0.594511
v 0.051545 0.892084 0.585618
v 0.063704 0.899969 0.581753
v 0.071007 0.912728 0.612766
v 0.075732 0.912728 0.598531
v 0.058816 0.912728 0.621504
v 0.071188 0.912728 0.584237
v 0.059110 0.912728 0.575344
v 0.063492 0.925487 0.615155
v 0.051595 0.925487 0.577733
v 0.071138 0.925487 0.592122
v 0.051383 0.933372 0.611135
v 0.063573 0.933372 0.602396
v 0.059029 0.933372 0.588102
v 0.051215 0.912728 0.621456
v 0.051342 0.892084 0.608698
v 0.051609 0.912728 0.575296
v 0.051463 0.933372 0.588054
v 0.051320 0.925278 0.621208
v 0.051466 0.939405 0.598350
v 0.051604 0.927284 0.576611
v 0.051380 0.935588 0.611785
v 0.051203 0.913848 0.622654
v 0.051618 0.913848 0.574045
v 0.051465 0.935588 0.587480
v 0.084666 0.933372 0.611135
v 0.074887 0.923581 0.620082
v 0.087500 0.936996 0.598376
v 0.063565 0.912728 0.621456
v 0.063959 0.912728 0.575296
v 0.075157 0.925487 0.577733
v 0.084747 0.933372 0.588054
v 0.084664 0.935588 0.611785
v 0.074881 0.925278 0.621208
v 0.087501 0.939405 0.598350
v 0.063553 0.913848 0.622654
v 0.063968 0.913848 0.574045
v 0.075165 0.927284 0.576611
v 0.084748 0.935588 0.587480
v 0.051464 0.944499 0.598376
v 0.064111 0.957915 0.616018
v 0.051602 0.957914 0.576671
v 0.072150 0.957915 0.591801
v 0.051326 0.979621 0.620082
v 0.064334 0.979621 0.580897
v 0.072065 0.979621 0.605215
v 0.051464 0.993036 0.598376
v 0.058898 0.948124 0.608746
v 0.051333 0.956009 0.619020
v 0.071057 0.956009 0.604881
v 0.063623 0.948124 0.594511
v 0.051545 0.948124 0.585618
v 0.063704 0.956009 0.581753
v 0.071007 0.968768 0.612766
v 0.075732 0.968768 0.598531
v 0.058816 0.968768 0.621504
v 0.071188 0.968768 0.584237
v 0.059110 0.968768 0.575344
v 0.063492 0.981527 0.615155
v 0.051595 0.981527 0.577733
v 0.071138 0.981527 0.592122
v 0.051383 0.989412 0.611135
v 0.063573 0.989412 0.602396
v 0.059029 0.989412 0.588102
v 0.051215 0.968768 0.621456
v 0.051342 0.948124 0.608698
v 0.051609 0.968768 0.575296
v 0.051463 0.989412 0.588054
v 0.051320 0.981318 0.621208
v 0.051466 0.995445 0.598350
v 0.051604 0.983325 0.576611
v 0.051380 0.991628 0.611785
v 0.051203 0.969889 0.622654
v 0.051618 0.969889 0.574045
v 0.051465 0.991628 0.587480
v 0.084666 0.989412 0.611135
v 0.074887 0.979621 0.620082
v 0.087500 0.993036 0.598376
v 0.063565 0.968768 0.621456
v 0.063959 0.968768 0.575296
v 0.075157 0.981527 0.577733
v 0.084747 0.989412 0.588054
v 0.084664 0.991628 0.611785
v 0.074881 0.981318 0.621208
v 0.087501 0.995445 0.598350
v 0.063553 0.969889 0.622654
v 0.063968 0.969889 0.574045
v 0.075165 0.983325 0.576611
v 0.084748 0.991628 0.587480
v -0.023118 0.828227 0.633749
v -0.023118 0.828227 0.562982
v 0.044090 0.828227 0.562982
v 0.044090 0.828227 0.633749
v 0.044090 1.003327 0.633749
v -0.023118 1.003327 0.633749
v -0.035475 0.840315 0.628139
v -0.035475 0.840315 0.568592
v -0.023118 1.003327 0.562982
v 0.044090 1.003327 0.562982
v 0.044090 0.822734 0.559370
v 0.044090 0.822734 0.637361
v 0.044090 0.832753 0.643174
v 0.044090 0.998801 0.643174
v -0.035475 0.991239 0.628139
v -0.035475 0.991239 0.568592
v 0.044090 0.998801 0.553558
v 0.044090 0.832753 0.553558
v 0.055543 0.822734 0.559370
v 0.055543 0.822734 0.637361
v 0.044090 1.008821 0.637361
v 0.055543 0.832753 0.643174
v 0.055543 0.998801 0.643174
v 0.044090 1.008821 0.559370
v 0.055543 0.998801 0.553558
v 0.055543 0.832753 0.553558
v 0.055543 0.828227 0.562982
v 0.055543 0.828227 0.633749
v 0.055543 1.008821 0.637361
v 0.055543 1.003327 0.633749
v 0.055543 1.008821 0.559370
v 0.055543 1.003327 0.562982
v -0.000000 0.000175 -0.027592
v -0.000000 0.182018 -0.027592
v 0.026241 0.182018 -0.008526
v 0.026241 0.000175 -0.008526
v 0.016218 0.000175 0.022322
v -0.016218 0.000175 0.022322
v -0.026241 0.000175 -0.008526
v -0.026241 0.182018 -0.008526
v -0.000000 0.205581 -0.014255
v 0.013557 0.205581 -0.004405
v 0.016218 0.182018 0.022322
v -0.016218 0.182018 0.022322
v -0.013557 0.205581 -0.004405
v 0.008379 0.205581 0.011532
v 0.013557 1.134076 -0.004405
v -0.000000 1.134076 -0.014255
v -0.008379 0.205581 0.011532
v -0.013557 1.134076 -0.004405
v 0.008378 1.134076 0.011532
v -0.008379 1.134076 0.011532
v 0.011143 0.964806 0.000431
v 0.006887 0.977905 0.628690
v -0.011143 0.964805 0.628690
v 0.011143 0.964805 0.628690
v -0.000000 0.956710 0.628690
v -0.000000 0.956710 0.000431
v -0.006887 0.977905 0.628690
v -0.011143 0.964806 0.000431
v 0.006886 0.977905 0.000431
v -0.006887 0.977905 0.000431
v 0.013557 0.955140 -0.004405
v -0.000000 0.955140 -0.014255
v -0.013557 0.955140 -0.004405
v 0.011814 0.955140 0.011532
v -0.011815 0.955140 0.011532
v -0.000000 0.980665 -0.014255
v -0.013557 0.980665 -0.004405
v 0.013557 0.980665 -0.004405
v 0.011814 0.980665 0.011532
v -0.011815 0.980665 0.011532
v 0.013557 0.952126 -0.004405
v 0.008378 0.952126 0.011532
v -0.008379 0.952126 0.011532
v -0.000000 0.952126 -0.014255
v -0.013557 0.952126 -0.004405
v -0.000000 0.983687 -0.014255
v -0.013557 0.983687 -0.004405
v 0.013557 0.983687 -0.004405
v 0.008378 0.983687 0.011532
v -0.008379 0.983687 0.011532
vn 0.000000 0.000000 -1.000000
vn 0.000000 1.000000 0.000000
vn -0.413400 0.000000 -0.910600
vn -1.000000 0.000000 0.000000
vn -0.699300 0.714800 0.000000
vn 0.000000 -1.000000 0.000000
vn 0.000000 0.000000 1.000000
vn -0.699300 -0.714800 0.000000
vn -0.413400 0.000000 0.910600
vn 0.587800 -0.809000 -0.000000
vn 0.587800 0.000000 -0.809000
vn -0.587800 -0.000000 -0.809000
vn 0.951100 0.000000 0.309000
vn -0.994100 -0.000000 0.108700
vn -0.951100 0.309000 0.000000
vn 0.951100 0.309000 -0.000000
vn -0.587800 -0.809000 0.000000
vn -0.951100 -0.000000 0.309000
vn 0.994100 0.000000 0.108700
vn 0.854200 0.485700 0.185500
vn -0.854200 0.485700 0.185500
vn -0.853700 -0.486700 0.185300
vn 0.853700 -0.486700 0.185300
vn 0.000000 -0.674600 -0.738200
vn 0.000000 0.674600 0.738200
vn 0.000000 -0.794600 0.607100
vn 0.000000 -0.943500 0.331300
vn 0.000000 0.794600 -0.607100
vn 0.000000 -0.125600 -0.992100
vn 0.803100 -0.233600 -0.548200
vn 0.970000 -0.031900 -0.240800
vn 0.787600 -0.253200 0.561800
vn 0.674900 -0.468000 -0.570600
vn 0.978600 -0.027200 0.204100
vn 0.584100 -0.514200 0.628000
vn 0.000000 0.961900 0.273300
vn 0.000000 -0.961900 -0.273300
vn 0.000000 0.125600 0.992100
vn 0.000000 0.187600 -0.982200
vn 0.000000 -0.187600 0.982200
vn 0.000000 -0.744900 -0.667200
vn 0.000000 0.943500 -0.331300
vn 0.000000 -0.730300 0.683200
vn 0.787600 -0.253200 0.561700
vn 0.674900 -0.468000 -0.570500
vn 0.000000 -0.501800 0.865000
vn 0.000000 -0.501800 -0.865000
vn 1.000000 0.000000 0.000000
vn 0.000000 0.501800 0.865000
vn 0.000000 0.501800 -0.865000
vn 0.534400 0.416300 -0.735600
vn -0.534400 0.416300 -0.735600
vn 0.864700 0.416300 0.281000
vn 0.000000 0.416300 0.909200
vn -0.864700 0.416300 0.281000
vn 0.580100 -0.661700 0.475000
vn 0.196400 -0.943500 -0.266800
vn 0.774400 -0.330400 0.539500
vn 0.752400 -0.330400 -0.569800
vn 0.578000 -0.125600 0.806300
vn 0.945500 -0.125600 -0.300500
vn 0.190100 0.661700 0.725300
vn 0.272500 0.661700 -0.698500
vn 0.748500 0.661700 0.043300
vn 0.315700 0.943500 -0.100400
vn 0.578500 0.794700 -0.183900
vn 0.586100 0.661700 -0.467600
vn 0.002100 0.943500 -0.331300
vn 0.003900 0.794700 -0.607000
vn 0.193000 0.943500 0.269300
vn 0.353700 0.794700 0.493400
vn 0.625800 0.661700 0.412900
vn 0.943700 0.330400 -0.018700
vn 0.936100 0.187600 -0.297600
vn 0.781300 0.330400 -0.529600
vn 0.273800 0.330400 -0.903300
vn 0.309400 0.330400 0.891700
vn 0.572300 0.187600 0.798300
vn 0.745100 0.330400 0.579400
vn 0.588200 0.125600 -0.798900
vn 0.582400 -0.187600 -0.791000
vn 0.320800 -0.330400 -0.887700
vn 0.262300 -0.330400 0.906700
vn 0.941600 0.125600 0.312600
vn 0.932200 -0.187600 0.309500
vn 0.943300 -0.330400 0.030700
vn 0.631000 -0.661700 -0.404900
vn 0.359900 -0.794700 -0.488800
vn 0.199300 -0.661700 -0.722800
vn 0.749000 -0.661700 -0.033800
vn 0.576100 -0.794700 0.191300
vn 0.314400 -0.943500 0.104400
vn 0.263600 -0.661700 0.701900
vn -0.006300 0.125600 0.992100
vn -0.006200 -0.187600 0.982200
vn -0.003900 -0.794700 0.607000
vn -0.002100 -0.943500 0.331300
vn 0.006300 -0.125600 -0.992100
vn 0.006300 0.187600 -0.982200
vn 0.774500 -0.330400 0.539500
vn 0.945500 -0.125600 -0.300600
vn 0.941500 0.125600 0.312600
vn 0.943300 -0.330400 0.030800
vn 0.320700 -0.330400 -0.887700
usemtl Grey.001
s off
f 159//1 160//1 153//1 152//1
f 155//2 160//2 159//2 156//2
f 159//3 152//3 158//3 166//3
f 165//4 166//4 158//4 157//4
f 156//5 159//5 166//5 165//5
f 151//6 152//6 153//6 154//6
f 155//7 156//7 151//7 154//7
f 152//8 151//8 157//8 158//8
f 151//9 156//9 165//9 157//9
f 203//10 206//10 207//10 208//10
f 223//11 192//11 191//11 226//11
f 226//12 191//12 195//12 227//12
f 224//13 196//13 192//13 223//13
f 225//7 199//7 196//7 224//7
f 219//14 215//14 217//14 222//14
f 210//15 205//15 209//15 212//15
f 212//2 209//2 204//2 211//2
f 211//16 204//16 206//16 203//16
f 208//17 207//17 205//17 210//17
f 227//18 195//18 199//18 225//18
f 222//7 217//7 216//7 221//7
f 221//19 216//19 213//19 220//19
f 218//12 214//12 215//12 219//12
f 220//11 213//11 214//11 218//11
f 230//11 220//11 218//11 228//11
f 228//12 218//12 219//12 229//12
f 231//20 221//20 220//20 230//20
f 232//7 222//7 221//7 231//7
f 229//21 219//21 222//21 232//21
f 215//22 227//22 225//22 217//22
f 217//7 225//7 224//7 216//7
f 216//23 224//23 223//23 213//23
f 214//12 226//12 227//12 215//12
f 213//11 223//11 226//11 214//11
f 200//18 229//18 232//18 202//18
f 202//7 232//7 231//7 201//7
f 201//13 231//13 230//13 197//13
f 198//12 228//12 229//12 200//12
f 197//11 230//11 228//11 198//11
f 198//2 200//2 202//2 201//2 197//2
usemtl DarkGrey.001
f 5//24 23//24 37//24 38//24
f 33//25 30//25 45//25 44//25
f 29//26 21//26 42//26 43//26
f 8//27 29//27 43//27 39//27
f 32//28 36//28 50//28 49//28
f 26//29 5//29 38//29 40//29
f 43//30 42//30 49//30 50//30
f 39//31 43//31 50//31 46//31
f 38//32 37//32 44//32 45//32
f 42//33 41//33 48//33 49//33
f 37//34 39//34 46//34 44//34
f 40//35 38//35 45//35 47//35
f 31//36 33//36 44//36 46//36
f 23//37 8//37 39//37 37//37
f 30//38 34//38 47//38 45//38
f 35//39 32//39 49//39 48//39
f 21//40 28//40 41//40 42//40
f 28//41 35//41 48//41 41//41
f 36//42 31//42 46//42 50//42
f 34//43 26//43 40//43 47//43
f 55//24 73//24 87//24 88//24
f 83//25 80//25 95//25 94//25
f 79//26 71//26 92//26 93//26
f 58//27 79//27 93//27 89//27
f 82//28 86//28 100//28 99//28
f 76//29 55//29 88//29 90//29
f 93//30 92//30 99//30 100//30
f 89//31 93//31 100//31 96//31
f 88//44 87//44 94//44 95//44
f 92//45 91//45 98//45 99//45
f 87//34 89//34 96//34 94//34
f 90//35 88//35 95//35 97//35
f 81//36 83//36 94//36 96//36
f 73//37 58//37 89//37 87//37
f 80//38 84//38 97//38 95//38
f 85//39 82//39 99//39 98//39
f 71//40 78//40 91//40 92//40
f 78//41 85//41 98//41 91//41
f 86//42 81//42 96//42 100//42
f 84//43 76//43 90//43 97//43
f 105//24 123//24 137//24 138//24
f 133//25 130//25 145//25 144//25
f 129//26 121//26 142//26 143//26
f 108//27 129//27 143//27 139//27
f 132//28 136//28 150//28 149//28
f 126//29 105//29 138//29 140//29
f 143//30 142//30 149//30 150//30
f 139//31 143//31 150//31 146//31
f 138//44 137//44 144//44 145//44
f 142//33 141//33 148//33 149//33
f 137//34 139//34 146//34 144//34
f 140//35 138//35 145//35 147//35
f 131//36 133//36 144//36 146//36
f 123//37 108//37 139//37 137//37
f 130//38 134//38 147//38 145//38
f 135//39 132//39 149//39 148//39
f 121//40 128//40 141//40 142//40
f 128//41 135//41 148//41 141//41
f 136//42 131//42 146//42 150//42
f 134//43 126//43 140//43 147//43
f 154//4 153//4 161//4 162//4
f 155//4 154//4 163//4 164//4
f 153//4 160//4 167//4 168//4
f 162//4 163//4 154//4
f 168//4 161//4 153//4
f 162//6 161//6 169//6 170//6
f 164//4 171//4 155//4
f 164//7 163//7 172//7 173//7
f 160//4 155//4 171//4 174//4
f 174//4 167//4 160//4
f 168//1 167//1 175//1 176//1
f 162//46 170//46 172//46 163//46
f 169//47 161//47 168//47 176//47
f 177//48 178//48 170//48 169//48
f 164//49 173//49 179//49 171//49
f 178//48 180//48 173//48 172//48
f 174//2 171//2 179//2 181//2
f 175//50 167//50 174//50 181//50
f 182//48 177//48 176//48 175//48
f 172//48 170//48 178//48
f 169//48 176//48 177//48
f 182//48 180//48 178//48 177//48
f 179//48 173//48 180//48
f 180//48 182//48 181//48 179//48
f 175//48 181//48 182//48
f 183//11 184//11 185//11 186//11
f 183//6 186//6 187//6 188//6 189//6
f 189//12 190//12 184//12 183//12
f 185//51 184//51 191//51 192//51
f 186//13 185//13 193//13 187//13
f 187//7 193//7 194//7 188//7
f 188//18 194//18 190//18 189//18
f 184//52 190//52 195//52 191//52
f 193//53 185//53 192//53 196//53
f 194//54 193//54 196//54 199//54
f 190//55 194//55 199//55 195//55
usemtl Red.003
f 102//56 109//56 111//56
f 101//57 113//57 112//57
f 102//58 111//58 115//58
f 104//59 114//59 118//59
f 102//60 115//60 117//60
f 104//61 118//61 116//61
f 105//62 120//62 123//62
f 106//63 121//63 125//63
f 107//64 122//64 124//64
f 124//65 125//65 108//65
f 124//66 122//66 125//66
f 122//67 106//67 125//67
f 125//68 129//68 108//68
f 125//69 121//69 129//69
f 123//70 124//70 108//70
f 123//71 120//71 124//71
f 120//72 107//72 124//72
f 116//73 122//73 107//73
f 116//74 118//74 122//74
f 118//75 106//75 122//75
f 119//76 121//76 106//76
f 117//77 120//77 105//77
f 117//78 115//78 120//78
f 115//79 107//79 120//79
f 118//80 119//80 106//80
f 118//81 114//81 119//81
f 114//82 103//82 119//82
f 110//83 102//83 117//83
f 115//84 116//84 107//84
f 115//85 111//85 116//85
f 111//86 104//86 116//86
f 112//87 114//87 104//87
f 112//88 113//88 114//88
f 113//89 103//89 114//89
f 111//90 112//90 104//90
f 111//91 109//91 112//91
f 109//92 101//92 112//92
f 109//93 102//93 110//93
f 126//94 117//94 105//94
f 110//95 117//95 126//95
f 127//96 109//96 110//96
f 101//97 109//97 127//97
f 119//98 103//98 128//98
f 119//99 128//99 121//99
usemtl Yellow.002
f 52//56 59//56 61//56
f 51//57 63//57 62//57
f 52//100 61//100 65//100
f 54//59 64//59 68//59
f 52//60 65//60 67//60
f 54//101 68//101 66//101
f 55//62 70//62 73//62
f 56//63 71//63 75//63
f 57//64 72//64 74//64
f 74//65 75//65 58//65
f 74//66 72//66 75//66
f 72//67 56//67 75//67
f 75//68 79//68 58//68
f 75//69 71//69 79//69
f 73//70 74//70 58//70
f 73//71 70//71 74//71
f 70//72 57//72 74//72
f 66//73 72//73 57//73
f 66//74 68//74 72//74
f 68//75 56//75 72//75
f 69//76 71//76 56//76
f 67//77 70//77 55//77
f 67//78 65//78 70//78
f 65//79 57//79 70//79
f 68//80 69//80 56//80
f 68//81 64//81 69//81
f 64//82 53//82 69//82
f 60//83 52//83 67//83
f 65//102 66//102 57//102
f 65//85 61//85 66//85
f 61//103 54//103 66//103
f 62//87 64//87 54//87
f 62//88 63//88 64//88
f 63//89 53//89 64//89
f 61//90 62//90 54//90
f 61//91 59//91 62//91
f 59//92 51//92 62//92
f 59//93 52//93 60//93
f 76//94 67//94 55//94
f 60//95 67//95 76//95
f 77//96 59//96 60//96
f 51//97 59//97 77//97
f 69//98 53//98 78//98
f 69//99 78//99 71//99
usemtl Green.004
f 2//56 9//56 11//56
f 1//57 13//57 12//57
f 2//100 11//100 15//100
f 4//59 14//59 18//59
f 2//60 15//60 17//60
f 4//101 18//101 16//101
f 5//62 20//62 23//62
f 6//63 21//63 25//63
f 7//64 22//64 24//64
f 24//65 25//65 8//65
f 24//66 22//66 25//66
f 22//67 6//67 25//67
f 25//68 29//68 8//68
f 25//69 21//69 29//69
f 23//70 24//70 8//70
f 23//71 20//71 24//71
f 20//72 7//72 24//72
f 16//73 22//73 7//73
f 16//74 18//74 22//74
f 18//75 6//75 22//75
f 19//76 21//76 6//76
f 17//77 20//77 5//77
f 17//78 15//78 20//78
f 15//79 7//79 20//79
f 18//80 19//80 6//80
f 18//81 14//81 19//81
f 14//104 3//104 19//104
f 10//83 2//83 17//83
f 15//84 16//84 7//84
f 15//85 11//85 16//85
f 11//103 4//103 16//103
f 12//87 14//87 4//87
f 12//88 13//88 14//88
f 13//89 3//89 14//89
f 11//90 12//90 4//90
f 11//91 9//91 12//91
f 9//92 1//92 12//92
f 9//93 2//93 10//93
f 26//94 17//94 5//94
f 10//95 17//95 26//95
f 27//96 9//96 10//96
f 1//97 9//97 27//97
f 19//98 3//98 28//98
f 19//99 28//99 21//99
