# Blender v2.76 (sub 0) OBJ File: 'TrafficLight.blend'
# www.blender.org
mtllib TrafficLight.mtl
o TrafficLight_Cylinder.006
v 0.051464 0.694671 0.000011
v 0.064111 0.708086 0.017652
v 0.051602 0.708086 -0.021695
v 0.072150 0.708086 -0.006565
v 0.051326 0.729793 0.021716
v 0.064334 0.729793 -0.017469
v 0.072065 0.729793 0.006850
v 0.051464 0.743208 0.000011
v 0.058898 0.698296 0.010380
v 0.051333 0.706181 0.020654
v 0.071057 0.706181 0.006515
v 0.063623 0.698296 -0.003855
v 0.051545 0.698296 -0.012748
v 0.063704 0.706181 -0.016613
v 0.071007 0.718940 0.014400
v 0.075732 0.718940 0.000165
v 0.058816 0.718940 0.023139
v 0.071188 0.718940 -0.014129
v 0.059110 0.718940 -0.023022
v 0.063492 0.731699 0.016789
v 0.051595 0.731699 -0.020633
v 0.071138 0.731699 -0.006244
v 0.051383 0.739584 0.012769
v 0.063573 0.739584 0.004030
v 0.059029 0.739584 -0.010263
v 0.051215 0.718940 0.023090
v 0.051342 0.698296 0.010332
v 0.051609 0.718940 -0.023070
v 0.051463 0.739584 -0.010312
v 0.051320 0.731490 0.022842
v 0.051466 0.745617 -0.000016
v 0.051604 0.733496 -0.021755
v 0.051380 0.741800 0.013419
v 0.051203 0.720060 0.024288
v 0.051618 0.720060 -0.024321
v 0.051465 0.741800 -0.010886
v 0.084666 0.739584 0.012769
v 0.074887 0.729793 0.021716
v 0.087500 0.743208 0.000011
v 0.063565 0.718940 0.023090
v 0.063959 0.718940 -0.023070
v 0.075157 0.731699 -0.020633
v 0.084747 0.739584 -0.010312
v 0.084664 0.741800 0.013419
v 0.074881 0.731490 0.022842
v 0.087501 0.745617 -0.000016
v 0.063553 0.720060 0.024288
v 0.063968 0.720060 -0.024321
v 0.075165 0.733496 -0.021755
v 0.084748 0.741800 -0.010886
v 0.051464 0.750711 0.000011
v 0.064111 0.764126 0.017652
v 0.051602 0.764126 -0.021695
v 0.072150 0.764126 -0.006565
v 0.051326 0.785833 0.021716
v 0.064334 0.785833 -0.017469
v 0.072065 0.785833 0.006850
v 0.051464 0.799248 0.000011
v 0.058898 0.754336 0.010380
v 0.051333 0.762221 0.020654
v 0.071057 0.762221 0.006515
v 0.063623 0.754336 -0.003855
v 0.051545 0.754336 -0.012748
v 0.063704 0.762221 -0.016613
v 0.071007 0.774980 0.014400
v 0.075732 0.774980 0.000165
v 0.058816 0.774980 0.023139
v 0.071188 0.774980 -0.014129
v 0.059110 0.774980 -0.023022
v 0.063492 0.787739 0.016789
v 0.051595 0.787739 -0.020633
v 0.071138 0.787739 -0.006244
v 0.051383 0.795624 0.012769
v 0.063573 0.795624 0.004030
v 0.059029 0.795624 -0.010263
v 0.051215 0.774980 0.023090
v 0.051342 0.754336 0.010332
v 0.051609 0.774980 -0.023070
v 0.051463 0.795624 -0.010312
v 0.051320 0.787530 0.022842
v 0.051466 0.801657 -0.000016
v 0.051604 0.789537 -0.021755
v 0.051380 0.797840 0.013419
v 0.051203 0.776101 0.024288
v 0.051618 0.776101 -0.024321
v 0.051465 0.797840 -0.010886
v 0.084666 0.795624 0.012769
v 0.074887 0.785833 0.021716
v 0.087500 0.799248 0.000011
v 0.063565 0.774980 0.023090
v 0.063959 0.774980 -0.023070
v 0.075157 0.787739 -0.020633
v 0.084747 0.795624 -0.010312
v 0.084664 0.797840 0.013419
v 0.074881 0.787530 0.022842
v 0.087501 0.801657 -0.000016
v 0.063553 0.776101 0.024288
v 0.063968 0.776101 -0.024321
v 0.075165 0.789537 -0.021755
v 0.084748 0.797840 -0.010886
v 0.051464 0.806751 0.000011
v 0.064111 0.820167 0.017652
v 0.051602 0.820167 -0.021695
v 0.072150 0.820167 -0.006565
v 0.051326 0.841873 0.021716
v 0.064334 0.841873 -0.017469
v 0.072065 0.841873 0.006850
v 0.051464 0.855289 0.000011
v 0.058898 0.810376 0.010380
v 0.051333 0.818261 0.020654
v 0.071057 0.818261 0.006515
v 0.063623 0.810376 -0.003855
v 0.051545 0.810376 -0.012748
v 0.063704 0.818261 -0.016613
v 0.071007 0.831020 0.014400
v 0.075732 0.831020 0.000165
v 0.058816 0.831020 0.023139
v 0.071188 0.831020 -0.014129
v 0.059110 0.831020 -0.023022
v 0.063492 0.843779 0.016789
v 0.051595 0.843779 -0.020633
v 0.071138 0.843779 -0.006244
v 0.051383 0.851664 0.012769
v 0.063573 0.851664 0.004030
v 0.059029 0.851664 -0.010263
v 0.051215 0.831020 0.023090
v 0.051342 0.810376 0.010332
v 0.051609 0.831020 -0.023070
v 0.051463 0.851664 -0.010312
v 0.051320 0.843570 0.022842
v 0.051466 0.857697 -0.000016
v 0.051604 0.845577 -0.021755
v 0.051380 0.853880 0.013419
v 0.051203 0.832141 0.024288
v 0.051618 0.832141 -0.024321
v 0.051465 0.853880 -0.010886
v 0.084666 0.851664 0.012769
v 0.074887 0.841873 0.021716
v 0.087500 0.855289 0.000011
v 0.063565 0.831020 0.023090
v 0.063959 0.831020 -0.023070
v 0.075157 0.843779 -0.020633
v 0.084747 0.851664 -0.010312
v 0.084664 0.853880 0.013419
v 0.074881 0.843570 0.022842
v 0.087501 0.857697 -0.000016
v 0.063553 0.832141 0.024288
v 0.063968 0.832141 -0.024321
v 0.075165 0.845577 -0.021755
v 0.084748 0.853880 -0.010886
v -0.000000 0.000175 -0.027592
v -0.000000 0.182018 -0.027592
v 0.026241 0.182018 -0.008526
v 0.026241 0.000175 -0.008526
v 0.016218 0.000175 0.022322
v -0.016218 0.000175 0.022322
v -0.026241 0.000175 -0.008526
v -0.026241 0.182018 -0.008526
v -0.000000 0.205581 -0.014255
v 0.013557 0.205581 -0.004405
v 0.016218 0.182018 0.022322
v -0.016218 0.182018 0.022322
v -0.013557 0.205581 -0.004405
v 0.008379 0.205581 0.011532
v 0.013557 0.690479 -0.004405
v -0.000000 0.690479 -0.014255
v -0.008379 0.205581 0.011532
v -0.013557 0.690479 -0.004405
v 0.008378 0.690479 0.011532
v -0.008379 0.690479 0.011532
v -0.023118 0.690479 -0.035384
v 0.044090 0.690479 -0.035384
v 0.044090 0.690479 0.035384
v -0.023118 0.690479 0.035384
v 0.044090 0.865580 0.035384
v -0.023118 0.865580 0.035384
v -0.035475 0.702568 0.029774
v -0.035475 0.702568 -0.029774
v -0.023118 0.865580 -0.035384
v 0.044090 0.865580 -0.035384
v 0.044090 0.684986 -0.038995
v 0.044090 0.684986 0.038995
v 0.044090 0.695006 0.044808
v 0.044090 0.861053 0.044808
v -0.035475 0.853491 0.029774
v -0.035475 0.853491 -0.029774
v 0.044090 0.861053 -0.044808
v 0.044090 0.695006 -0.044808
v 0.055543 0.684986 -0.038995
v 0.055543 0.684986 0.038995
v 0.044090 0.871073 0.038995
v 0.055543 0.695006 0.044808
v 0.055543 0.861053 0.044808
v 0.044090 0.871073 -0.038995
v 0.055543 0.861053 -0.044808
v 0.055543 0.695006 -0.044808
v 0.055543 0.690479 -0.035384
v 0.055543 0.690479 0.035384
v 0.055543 0.871073 0.038995
v 0.055543 0.865580 0.035384
v 0.055543 0.871073 -0.038995
v 0.055543 0.865580 -0.035384
vn 0.587800 0.000000 -0.809000
vn -0.587800 -0.000000 -0.809000
vn 0.951100 0.000000 0.309000
vn 0.000000 0.000000 1.000000
vn -0.951100 -0.000000 0.309000
vn 0.000000 -1.000000 -0.000000
vn -0.699300 -0.714800 0.000000
vn 0.000000 0.000000 -1.000000
vn 0.000000 1.000000 0.000000
vn -0.413400 0.000000 0.910600
vn -0.413400 0.000000 -0.910600
vn -1.000000 0.000000 0.000000
vn -0.699300 0.714800 0.000000
vn -0.000000 -0.674600 -0.738200
vn 0.000000 0.674600 0.738200
vn 0.000000 -0.794600 0.607100
vn 0.000000 -0.943500 0.331300
vn -0.000000 0.794600 -0.607100
vn -0.000000 -0.125600 -0.992100
vn 0.803100 -0.233600 -0.548200
vn 0.970000 -0.031900 -0.240800
vn 0.787600 -0.253200 0.561700
vn 0.674900 -0.468000 -0.570500
vn 0.978600 -0.027300 0.204100
vn 0.584100 -0.514200 0.628000
vn 0.000000 0.961900 0.273300
vn -0.000000 -0.961900 -0.273300
vn 0.000000 0.125600 0.992100
vn -0.000000 0.187600 -0.982200
vn 0.000000 -0.187600 0.982200
vn -0.000000 -0.744900 -0.667200
vn -0.000000 0.943500 -0.331300
vn 0.000000 -0.730300 0.683100
vn 0.534400 0.416300 -0.735600
vn -0.534400 0.416300 -0.735600
vn 0.864700 0.416300 0.281000
vn 0.000000 0.416300 0.909200
vn -0.864700 0.416300 0.281000
vn 0.000000 -0.501800 0.865000
vn 0.000000 -0.501800 -0.865000
vn 1.000000 -0.000000 0.000000
vn 0.000000 0.501800 0.865000
vn 0.000000 0.501800 -0.865000
vn 0.580100 -0.661700 0.475000
vn 0.196400 -0.943500 -0.266800
vn 0.774400 -0.330400 0.539500
vn 0.752400 -0.330400 -0.569800
vn 0.578000 -0.125600 0.806300
vn 0.945500 -0.125600 -0.300600
vn 0.190100 0.661700 0.725300
vn 0.272500 0.661700 -0.698500
vn 0.748500 0.661700 0.043300
vn 0.315700 0.943500 -0.100400
vn 0.578500 0.794700 -0.183900
vn 0.586100 0.661700 -0.467600
vn 0.002100 0.943500 -0.331300
vn 0.003900 0.794700 -0.607000
vn 0.193000 0.943500 0.269300
vn 0.353700 0.794700 0.493400
vn 0.625800 0.661700 0.412900
vn 0.943700 0.330400 -0.018700
vn 0.936100 0.187600 -0.297600
vn 0.781300 0.330400 -0.529600
vn 0.273800 0.330400 -0.903300
vn 0.309400 0.330400 0.891700
vn 0.572300 0.187600 0.798300
vn 0.745100 0.330400 0.579400
vn 0.588200 0.125600 -0.798900
vn 0.582400 -0.187600 -0.791000
vn 0.320800 -0.330400 -0.887700
vn 0.262300 -0.330400 0.906700
vn 0.941600 0.125600 0.312600
vn 0.932200 -0.187600 0.309500
vn 0.943300 -0.330400 0.030800
vn 0.631000 -0.661700 -0.404900
vn 0.359900 -0.794700 -0.488800
vn 0.199400 -0.661700 -0.722800
vn 0.749000 -0.661700 -0.033800
vn 0.576100 -0.794700 0.191300
vn 0.314400 -0.943500 0.104400
vn 0.263600 -0.661700 0.701900
vn -0.006300 0.125600 0.992100
vn -0.006300 -0.187600 0.982200
vn -0.003900 -0.794700 0.607000
vn -0.002100 -0.943500 0.331300
vn 0.006300 -0.125600 -0.992100
vn 0.006300 0.187600 -0.982200
vn 0.774500 -0.330400 0.539500
vn 0.199300 -0.661700 -0.722800
vn -0.003900 -0.794700 0.607100
usemtl Grey
s off
f 165//1 160//1 159//1 166//1
f 166//2 159//2 163//2 168//2
f 169//3 164//3 160//3 165//3
f 170//4 167//4 164//4 169//4
f 168//5 163//5 167//5 170//5
f 168//6 171//6 172//6 173//6 169//6 165//6 166//6
f 170//6 169//6 173//6 174//6 171//6 168//6
f 175//4 176//4 174//4 173//4
f 171//7 174//7 177//7 178//7
f 179//8 180//8 172//8 171//8
f 175//9 180//9 179//9 176//9
f 174//10 176//10 185//10 177//10
f 179//11 171//11 178//11 186//11
f 185//12 186//12 178//12 177//12
f 176//13 179//13 186//13 185//13
usemtl DarkGrey
f 5//14 23//14 37//14 38//14
f 33//15 30//15 45//15 44//15
f 29//16 21//16 42//16 43//16
f 8//17 29//17 43//17 39//17
f 32//18 36//18 50//18 49//18
f 26//19 5//19 38//19 40//19
f 43//20 42//20 49//20 50//20
f 39//21 43//21 50//21 46//21
f 38//22 37//22 44//22 45//22
f 42//23 41//23 48//23 49//23
f 37//24 39//24 46//24 44//24
f 40//25 38//25 45//25 47//25
f 31//26 33//26 44//26 46//26
f 23//27 8//27 39//27 37//27
f 30//28 34//28 47//28 45//28
f 35//29 32//29 49//29 48//29
f 21//30 28//30 41//30 42//30
f 28//31 35//31 48//31 41//31
f 36//32 31//32 46//32 50//32
f 34//33 26//33 40//33 47//33
f 55//14 73//14 87//14 88//14
f 83//15 80//15 95//15 94//15
f 79//16 71//16 92//16 93//16
f 58//17 79//17 93//17 89//17
f 82//18 86//18 100//18 99//18
f 76//19 55//19 88//19 90//19
f 93//20 92//20 99//20 100//20
f 89//21 93//21 100//21 96//21
f 88//22 87//22 94//22 95//22
f 92//23 91//23 98//23 99//23
f 87//24 89//24 96//24 94//24
f 90//25 88//25 95//25 97//25
f 81//26 83//26 94//26 96//26
f 73//27 58//27 89//27 87//27
f 80//28 84//28 97//28 95//28
f 85//29 82//29 99//29 98//29
f 71//30 78//30 91//30 92//30
f 78//31 85//31 98//31 91//31
f 86//32 81//32 96//32 100//32
f 84//33 76//33 90//33 97//33
f 105//14 123//14 137//14 138//14
f 133//15 130//15 145//15 144//15
f 129//16 121//16 142//16 143//16
f 108//17 129//17 143//17 139//17
f 132//18 136//18 150//18 149//18
f 126//19 105//19 138//19 140//19
f 143//20 142//20 149//20 150//20
f 139//21 143//21 150//21 146//21
f 138//22 137//22 144//22 145//22
f 142//23 141//23 148//23 149//23
f 137//24 139//24 146//24 144//24
f 140//25 138//25 145//25 147//25
f 131//26 133//26 144//26 146//26
f 123//27 108//27 139//27 137//27
f 130//28 134//28 147//28 145//28
f 135//29 132//29 149//29 148//29
f 121//30 128//30 141//30 142//30
f 128//31 135//31 148//31 141//31
f 136//32 131//32 146//32 150//32
f 134//33 126//33 140//33 147//33
f 151//1 152//1 153//1 154//1
f 151//6 154//6 155//6 156//6 157//6
f 157//2 158//2 152//2 151//2
f 153//34 152//34 159//34 160//34
f 154//3 153//3 161//3 155//3
f 155//4 161//4 162//4 156//4
f 156//5 162//5 158//5 157//5
f 152//35 158//35 163//35 159//35
f 161//36 153//36 160//36 164//36
f 162//37 161//37 164//37 167//37
f 158//38 162//38 167//38 163//38
f 173//12 172//12 181//12 182//12
f 175//12 173//12 183//12 184//12
f 172//12 180//12 187//12 188//12
f 182//12 183//12 173//12
f 188//12 181//12 172//12
f 182//6 181//6 189//6 190//6
f 184//12 191//12 175//12
f 184//4 183//4 192//4 193//4
f 180//12 175//12 191//12 194//12
f 194//12 187//12 180//12
f 188//8 187//8 195//8 196//8
f 182//39 190//39 192//39 183//39
f 189//40 181//40 188//40 196//40
f 197//41 198//41 190//41 189//41
f 184//42 193//42 199//42 191//42
f 198//41 200//41 193//41 192//41
f 194//9 191//9 199//9 201//9
f 195//43 187//43 194//43 201//43
f 202//41 197//41 196//41 195//41
f 192//41 190//41 198//41
f 189//41 196//41 197//41
f 202//41 200//41 198//41 197//41
f 199//41 193//41 200//41
f 200//41 202//41 201//41 199//41
f 195//41 201//41 202//41
usemtl Red.002
f 102//44 109//44 111//44
f 101//45 113//45 112//45
f 102//46 111//46 115//46
f 104//47 114//47 118//47
f 102//48 115//48 117//48
f 104//49 118//49 116//49
f 105//50 120//50 123//50
f 106//51 121//51 125//51
f 107//52 122//52 124//52
f 124//53 125//53 108//53
f 124//54 122//54 125//54
f 122//55 106//55 125//55
f 125//56 129//56 108//56
f 125//57 121//57 129//57
f 123//58 124//58 108//58
f 123//59 120//59 124//59
f 120//60 107//60 124//60
f 116//61 122//61 107//61
f 116//62 118//62 122//62
f 118//63 106//63 122//63
f 119//64 121//64 106//64
f 117//65 120//65 105//65
f 117//66 115//66 120//66
f 115//67 107//67 120//67
f 118//68 119//68 106//68
f 118//69 114//69 119//69
f 114//70 103//70 119//70
f 110//71 102//71 117//71
f 115//72 116//72 107//72
f 115//73 111//73 116//73
f 111//74 104//74 116//74
f 112//75 114//75 104//75
f 112//76 113//76 114//76
f 113//77 103//77 114//77
f 111//78 112//78 104//78
f 111//79 109//79 112//79
f 109//80 101//80 112//80
f 109//81 102//81 110//81
f 126//82 117//82 105//82
f 110//83 117//83 126//83
f 127//84 109//84 110//84
f 101//85 109//85 127//85
f 119//86 103//86 128//86
f 119//87 128//87 121//87
usemtl Yellow.001
f 52//44 59//44 61//44
f 51//45 63//45 62//45
f 52//46 61//46 65//46
f 54//47 64//47 68//47
f 52//48 65//48 67//48
f 54//49 68//49 66//49
f 55//50 70//50 73//50
f 56//51 71//51 75//51
f 57//52 72//52 74//52
f 74//53 75//53 58//53
f 74//54 72//54 75//54
f 72//55 56//55 75//55
f 75//56 79//56 58//56
f 75//57 71//57 79//57
f 73//58 74//58 58//58
f 73//59 70//59 74//59
f 70//60 57//60 74//60
f 66//61 72//61 57//61
f 66//62 68//62 72//62
f 68//63 56//63 72//63
f 69//64 71//64 56//64
f 67//65 70//65 55//65
f 67//66 65//66 70//66
f 65//67 57//67 70//67
f 68//68 69//68 56//68
f 68//69 64//69 69//69
f 64//70 53//70 69//70
f 60//71 52//71 67//71
f 65//72 66//72 57//72
f 65//73 61//73 66//73
f 61//74 54//74 66//74
f 62//75 64//75 54//75
f 62//76 63//76 64//76
f 63//77 53//77 64//77
f 61//78 62//78 54//78
f 61//79 59//79 62//79
f 59//80 51//80 62//80
f 59//81 52//81 60//81
f 76//82 67//82 55//82
f 60//83 67//83 76//83
f 77//84 59//84 60//84
f 51//85 59//85 77//85
f 69//86 53//86 78//86
f 69//87 78//87 71//87
usemtl Green.003
f 2//44 9//44 11//44
f 1//45 13//45 12//45
f 2//88 11//88 15//88
f 4//47 14//47 18//47
f 2//48 15//48 17//48
f 4//49 18//49 16//49
f 5//50 20//50 23//50
f 6//51 21//51 25//51
f 7//52 22//52 24//52
f 24//53 25//53 8//53
f 24//54 22//54 25//54
f 22//55 6//55 25//55
f 25//56 29//56 8//56
f 25//57 21//57 29//57
f 23//58 24//58 8//58
f 23//59 20//59 24//59
f 20//60 7//60 24//60
f 16//61 22//61 7//61
f 16//62 18//62 22//62
f 18//63 6//63 22//63
f 19//64 21//64 6//64
f 17//65 20//65 5//65
f 17//66 15//66 20//66
f 15//67 7//67 20//67
f 18//68 19//68 6//68
f 18//69 14//69 19//69
f 14//70 3//70 19//70
f 10//71 2//71 17//71
f 15//72 16//72 7//72
f 15//73 11//73 16//73
f 11//74 4//74 16//74
f 12//75 14//75 4//75
f 12//76 13//76 14//76
f 13//89 3//89 14//89
f 11//78 12//78 4//78
f 11//79 9//79 12//79
f 9//80 1//80 12//80
f 9//81 2//81 10//81
f 26//82 17//82 5//82
f 10//83 17//83 26//83
f 27//90 9//90 10//90
f 1//85 9//85 27//85
f 19//86 3//86 28//86
f 19//87 28//87 21//87
