# Blender v2.79 (sub 0) OBJ File: ''
# www.blender.org
mtllib CornerSofa.mtl
o Sofa-col_loungeSofaCorner-col-rigid
v -0.400000 0.499998 9.400000
v -0.400000 0.499998 9.799999
v -5.900000 0.499998 9.799999
v -5.900000 0.499999 5.900000
v -0.400000 0.499999 5.900000
v -0.400000 0.499999 6.300000
v -0.000000 0.499998 9.400000
v 0.000000 0.499999 6.300000
v -5.900000 0.499998 9.400000
v -6.300000 0.499998 9.400000
v -5.900000 0.500000 0.400000
v -6.300000 0.500000 0.400000
v -9.400000 0.499998 9.799999
v -6.300000 0.499998 9.799999
v -6.300000 0.500000 0.000000
v -9.400000 0.499999 6.300000
v -9.400000 0.499999 5.900000
v -9.400000 0.500000 0.000000
v -9.400000 0.500000 0.400000
v -9.799999 0.499999 5.900000
v -9.799999 0.500000 0.400000
v -9.400000 0.499998 9.400000
v -9.799999 0.499999 6.300000
v -9.799999 0.499998 9.400000
v -8.898285 4.200000 0.550858
v -9.799999 4.200000 0.550858
v -9.799999 4.600000 0.950858
v -8.898285 4.600000 0.950858
v -8.898285 3.700000 0.901715
v -6.300000 3.700000 0.901715
v -6.300000 3.700000 0.000001
v -8.898285 3.700000 0.550858
v -9.799999 3.700000 0.000001
v -9.799999 3.700000 0.550858
v -0.950857 4.599998 9.800000
v -0.950857 4.599998 8.898286
v -8.898285 4.599998 8.898286
v -9.799999 4.599998 9.800000
v -9.799999 0.500000 0.000000
v -5.900000 3.300000 0.000001
v -5.900000 0.500000 0.000000
v -5.700000 1.448143 0.901715
v -5.900000 1.448143 0.901715
v -5.900000 2.300000 0.901715
v -5.700000 2.300000 0.901715
v -8.898285 2.300000 0.901715
v -5.900000 3.300000 0.901715
v -0.901714 2.299999 5.900001
v -0.901714 2.299999 5.700000
v -5.700000 2.299999 5.700000
v -0.901714 2.299999 8.898285
v -8.898285 2.299999 8.898285
v -5.900000 1.448142 5.900000
v -5.700000 1.448142 5.700000
v -0.550857 3.699999 8.898286
v -0.550857 4.199998 8.898286
v -0.550857 4.199998 9.800000
v -0.550857 3.699998 9.800000
v 0.000000 0.499999 5.900000
v 0.000000 3.299999 5.900001
v 0.000000 3.699999 6.300001
v 0.000000 3.699998 9.800000
v -0.000000 0.499998 9.799999
v -0.901714 3.299999 5.900001
v -0.901714 3.699999 6.300001
v -0.901714 3.699999 8.898286
v -0.901714 1.448142 5.700000
v -0.901714 1.448142 5.900000
v -9.799999 0.499998 9.799999
v -0.400000 -0.000002 9.799999
v -0.000000 -0.000002 9.799999
v -0.400000 -0.000002 9.400000
v -0.000000 -0.000002 9.400000
v 0.000000 -0.000001 5.900000
v -0.400000 -0.000001 5.900000
v -9.799999 -0.000000 0.400000
v -9.400000 -0.000000 0.400000
v -9.400000 0.000000 0.000000
v -9.799999 0.000000 0.000000
v -9.400000 -0.000001 5.900000
v -9.799999 -0.000001 5.900000
v -0.400000 -0.000001 6.300000
v 0.000000 -0.000001 6.300000
v -9.799999 -0.000001 6.300000
v -9.400000 -0.000001 6.300000
v -6.300000 -0.000002 9.799999
v -5.900000 -0.000002 9.799999
v -9.799999 -0.000002 9.400000
v -9.799999 -0.000002 9.799999
v -5.900000 -0.000002 9.400000
v -6.300000 -0.000002 9.400000
v -6.300000 -0.000000 0.000000
v -6.300000 -0.000000 0.400000
v -5.900000 0.000000 0.000000
v -5.900000 -0.000000 0.400000
v -9.400000 -0.000002 9.400000
v -9.400000 -0.000002 9.799999
vt -1.574803 0.000000
vt -0.000000 0.000000
vt -0.000000 1.968504
vt -1.574803 1.968504
vt 37.007870 1.968504
vt 37.007870 0.000000
vt 38.582680 0.000000
vt 38.582680 1.968504
vt -0.000000 37.007870
vt -0.000000 38.582680
vt -1.574803 38.582680
vt -1.574803 37.007870
vt 0.000000 0.000000
vt 1.574803 0.000000
vt 1.574803 1.968504
vt 0.000000 1.968504
vt -38.582680 0.000000
vt -37.007870 0.000000
vt -37.007870 1.968504
vt -38.582680 1.968504
vt 37.007870 0.000000
vt 38.582680 0.000000
vt 38.582680 1.968504
vt 37.007870 1.968504
vt -37.007870 0.000000
vt -37.007870 1.574803
vt -38.582680 1.574803
vt -38.582680 0.000000
vt -0.000000 1.968504
vt -0.000000 0.000000
vt 1.574803 0.000000
vt 1.574803 1.968504
vt 0.000000 0.000000
vt 0.000000 1.968504
vt -1.574803 1.968504
vt -1.574803 0.000000
vt 37.007870 0.000000
vt 38.582680 0.000000
vt 38.582680 1.968504
vt 37.007870 1.968504
vt -37.007870 0.000000
vt -37.007870 1.968504
vt -38.582680 1.968504
vt -38.582680 0.000000
vt -1.574803 0.000000
vt 0.000000 0.000000
vt 0.000000 1.968504
vt -1.574803 1.968504
vt 23.228350 1.968504
vt 23.228350 0.000000
vt 24.803150 0.000000
vt 24.803150 1.968504
vt -37.007870 23.228350
vt -37.007870 24.803150
vt -38.582680 24.803150
vt -38.582680 23.228350
vt 0.000000 23.228350
vt 0.000000 24.803150
vt -1.574803 24.803150
vt -1.574803 23.228350
vt -23.228350 0.000000
vt -23.228350 1.968504
vt -24.803150 1.968504
vt -24.803150 0.000000
vt 0.000000 0.000000
vt 1.574803 0.000000
vt 1.574803 1.968504
vt 0.000000 1.968504
vt -23.228350 0.000000
vt -23.228350 1.968504
vt -24.803150 1.968504
vt -24.803150 0.000000
vt -38.582680 0.000000
vt -37.007870 0.000000
vt -37.007870 1.968504
vt -38.582680 1.968504
vt 23.228350 1.968504
vt 23.228350 0.000000
vt 24.803150 0.000000
vt 24.803150 1.968504
vt -24.803150 0.000000
vt -23.228350 0.000000
vt -23.228350 1.968504
vt -24.803150 1.968504
vt 37.007870 1.968504
vt 37.007870 -0.000000
vt 38.582680 -0.000000
vt 38.582680 1.968504
vt 23.228350 0.000000
vt 24.803150 0.000000
vt 24.803150 1.968504
vt 23.228350 1.968504
vt -0.000000 1.968504
vt -0.000000 0.000000
vt 1.574803 0.000000
vt 1.574803 1.968504
vt 23.228350 0.000000
vt 24.803150 0.000000
vt 24.803150 1.968504
vt 23.228350 1.968504
vt -24.803150 0.000000
vt -23.228350 0.000000
vt -23.228350 1.968504
vt -24.803150 1.968504
vt 37.007870 1.968504
vt 37.007870 0.000000
vt 38.582680 0.000000
vt 38.582680 1.968504
vt -23.228350 0.000000
vt -23.228350 1.574803
vt -24.803150 1.574803
vt -24.803150 0.000000
vt 37.007870 0.000000
vt 38.582680 0.000000
vt 38.582680 1.968504
vt 37.007870 1.968504
vt -37.007870 37.007870
vt -37.007870 38.582680
vt -38.582680 38.582680
vt -38.582680 37.007870
vt -37.007870 0.000000
vt -37.007870 1.968504
vt -38.582680 1.968504
vt -38.582680 0.000000
vt 0.000000 0.000000
vt 0.000000 1.968504
vt -1.574803 1.968504
vt -1.574803 0.000000
vt -37.007870 0.000000
vt -37.007870 1.968504
vt -38.582680 1.968504
vt -38.582680 0.000000
vt -23.228350 37.007870
vt -23.228350 38.582680
vt -24.803150 38.582680
vt -24.803150 37.007870
vt -38.582680 0.000000
vt -37.007870 0.000000
vt -37.007870 1.968504
vt -38.582680 1.968504
vt -1.574803 37.007870
vt -1.574803 38.582680
vt -23.228350 38.582680
vt -23.228350 23.228350
vt -1.574803 23.228350
vt -1.574803 24.803150
vt -0.000000 37.007870
vt -0.000000 24.803150
vt -23.228350 37.007870
vt -24.803150 37.007870
vt -23.228350 1.574803
vt -24.803150 1.574803
vt -37.007870 38.582680
vt -24.803150 38.582680
vt -24.803150 0.000000
vt -37.007870 24.803150
vt -37.007870 23.228350
vt -37.007870 0.000000
vt -37.007870 1.574803
vt -38.582680 23.228350
vt -38.582680 1.574803
vt -37.007870 37.007870
vt -38.582680 24.803150
vt -38.582680 37.007870
vt 35.032619 13.225840
vt 38.582680 13.225840
vt 38.582680 15.452950
vt 35.032619 15.452950
vt 35.032619 3.550057
vt 24.803150 3.550057
vt 24.803150 0.000000
vt 35.032619 2.168729
vt 38.582680 0.000000
vt 38.582680 2.168729
vt 3.743532 38.582680
vt 3.743532 35.032619
vt 35.032619 35.032619
vt 38.582680 38.582680
vt 35.032619 3.743532
vt 38.582680 3.743532
vt 38.582680 14.566930
vt 23.228350 12.992130
vt 24.803150 14.566930
vt 22.440941 5.701352
vt 23.228350 5.701352
vt 23.228350 9.055119
vt 22.440941 9.055119
vt -35.032619 9.055119
vt -23.228350 9.055119
vt -23.228350 12.992130
vt -35.032619 14.566930
vt -24.803150 14.566930
vt -3.550057 25.611740
vt 0.000000 25.611740
vt 0.000000 27.838850
vt -3.550057 27.838850
vt 3.550057 23.228350
vt 3.550057 22.440941
vt 22.440941 22.440941
vt 3.550057 35.032619
vt 35.032619 35.032619
vt 22.440941 3.550057
vt 23.228350 3.550057
vt 35.032619 3.550057
vt 0.000000 12.992130
vt -3.550057 12.992130
vt -3.550057 5.701352
vt -23.228350 1.968504
vt -3.550057 9.055119
vt -23.228350 5.701352
vt -3.550057 5.701352
vt -3.550057 9.055119
vt -22.440941 9.055119
vt -22.440941 5.701352
vt -35.032619 14.566930
vt -35.032619 16.535431
vt -38.582680 16.535431
vt -38.582680 14.566930
vt -23.228350 12.992130
vt -24.803150 14.566930
vt -38.582680 14.566930
vt 23.228350 12.992130
vt 23.228350 9.055119
vt 35.032619 9.055119
vt 24.803150 14.566930
vt 35.032619 14.566930
vt -3.550057 22.440941
vt -3.550057 23.228350
vt -23.228350 23.228350
vt -22.440941 22.440941
vt -22.440941 3.550057
vt -23.228350 3.550057
vt -0.000000 38.582680
vt -0.000000 24.803150
vt 3.550057 24.803150
vt 2.168729 35.032619
vt 3.550057 35.032619
vt 2.168729 38.582680
vt 3.550057 5.701352
vt 22.440941 5.701352
vt 22.440941 9.055119
vt 3.550057 9.055119
vt 23.228350 1.968504
vt 23.228350 5.701352
vt 3.550057 5.701352
vt -0.000000 12.992130
vt 3.550057 9.055119
vt 3.550057 12.992130
vt 0.000000 25.611740
vt 3.550057 25.611740
vt 3.550057 27.838850
vt 0.000000 27.838850
vt -35.032619 13.225840
vt -35.032619 15.452950
vt -38.582680 15.452950
vt -38.582680 13.225840
vt -22.440941 5.701352
vt -22.440941 9.055119
vt -23.228350 9.055119
vt -23.228350 5.701352
vt 35.032619 14.566930
vt 38.582680 14.566930
vt 38.582680 16.535431
vt 35.032619 16.535431
vt -2.168729 14.566930
vt -2.168729 16.535431
vt -3.743532 18.110241
vt -3.550057 14.566930
vt -3.550057 9.055119
vt -35.032619 9.055119
vt -35.032619 18.110241
vt 3.550057 9.055119
vt 35.032619 9.055119
vt 35.032619 18.110241
vt 3.550057 14.566930
vt 2.168729 14.566930
vt 2.168729 16.535431
vt 3.743532 18.110241
vt -0.000000 14.566930
vt 2.168729 14.566930
vt 2.168729 16.535431
vt 3.743532 18.110241
vt 38.582680 18.110241
vt 0.000000 14.566930
vt -2.168729 14.566930
vt -38.582680 18.110241
vt -2.168729 16.535431
vt -3.743532 18.110241
vn 0.0000 0.0000 1.0000
vn -1.0000 0.0000 0.0000
vn 0.0000 -1.0000 -0.0000
vn 0.0000 0.0000 -1.0000
vn 1.0000 -0.0000 0.0000
vn -0.0002 -1.0000 -0.0000
vn -0.0001 -1.0000 -0.0000
vn 0.1313 -0.9913 -0.0000
vn -0.5923 -0.2961 -0.7493
vn 0.0114 -0.9999 0.0000
vn -0.6484 -0.3242 -0.6888
vn 0.0000 0.7071 -0.7071
vn 0.0000 1.0000 0.0000
vn 0.7071 0.7071 0.0000
usemtl wood
s 1
f 70/1/1 71/2/1 63/3/1
f 63/3/1 2/4/1 70/1/1
f 1/5/2 72/6/2 70/7/2
f 70/7/2 2/8/2 1/5/2
f 73/9/3 71/10/3 70/11/3
f 70/11/3 72/12/3 73/9/3
f 74/13/4 75/14/4 5/15/4
f 5/15/4 59/16/4 74/13/4
f 76/17/1 77/18/1 19/19/1
f 19/19/1 21/20/1 76/17/1
f 78/21/4 79/22/4 39/23/4
f 39/23/4 18/24/4 78/21/4
f 78/25/3 77/26/3 76/27/3
f 76/27/3 79/28/3 78/25/3
f 39/29/2 79/30/2 76/31/2
f 76/31/2 21/32/2 39/29/2
f 78/33/5 18/34/5 19/35/5
f 19/35/5 77/36/5 78/33/5
f 80/37/4 81/38/4 20/39/4
f 20/39/4 17/40/4 80/37/4
f 73/41/5 7/42/5 63/43/5
f 63/43/5 71/44/5 73/41/5
f 82/45/1 83/46/1 8/47/1
f 8/47/1 6/48/1 82/45/1
f 20/49/2 81/50/2 84/51/2
f 84/51/2 23/52/2 20/49/2
f 80/53/3 85/54/3 84/55/3
f 84/55/3 81/56/3 80/53/3
f 74/57/3 83/58/3 82/59/3
f 82/59/3 75/60/3 74/57/3
f 74/61/5 59/62/5 8/63/5
f 8/63/5 83/64/5 74/61/5
f 73/65/4 72/66/4 1/67/4
f 1/67/4 7/68/4 73/65/4
f 80/69/5 17/70/5 16/71/5
f 16/71/5 85/72/5 80/69/5
f 84/73/1 85/74/1 16/75/1
f 16/75/1 23/76/1 84/73/1
f 5/77/2 75/78/2 82/79/2
f 82/79/2 6/80/2 5/77/2
f 86/81/1 87/82/1 3/83/1
f 3/83/1 14/84/1 86/81/1
f 24/85/2 88/86/2 89/87/2
f 89/87/2 69/88/2 24/85/2
f 90/89/4 91/90/4 10/91/4
f 10/91/4 9/92/4 90/89/4
f 15/93/2 92/94/2 93/95/2
f 93/95/2 12/96/2 15/93/2
f 94/97/4 92/98/4 15/99/4
f 15/99/4 41/100/4 94/97/4
f 93/101/1 95/102/1 11/103/1
f 11/103/1 12/104/1 93/101/1
f 10/105/2 91/106/2 86/107/2
f 86/107/2 14/108/2 10/105/2
f 94/109/3 95/110/3 93/111/3
f 93/111/3 92/112/3 94/109/3
f 96/113/4 88/114/4 24/115/4
f 24/115/4 22/116/4 96/113/4
f 96/117/3 97/118/3 89/119/3
f 89/119/3 88/120/3 96/117/3
f 90/121/5 9/122/5 3/123/5
f 3/123/5 87/124/5 90/121/5
f 94/125/5 41/126/5 11/127/5
f 11/127/5 95/128/5 94/125/5
f 96/129/5 22/130/5 13/131/5
f 13/131/5 97/132/5 96/129/5
f 90/133/3 87/134/3 86/135/3
f 86/135/3 91/136/3 90/133/3
f 89/137/1 97/138/1 13/139/1
f 13/139/1 69/140/1 89/137/1
usemtl carpet
f 1/141/3 2/142/3 3/143/6
f 1/141/3 3/143/6 4/144/7
f 1/141/3 4/144/7 5/145/3
f 1/141/3 5/145/3 6/146/8
f 7/147/3 1/141/3 6/146/8
f 6/146/8 8/148/3 7/147/3
f 3/143/6 9/149/9 4/144/7
f 9/149/9 10/150/3 4/144/7
f 10/150/3 11/151/3 4/144/7
f 10/150/3 12/152/3 11/151/3
f 13/153/3 12/152/3 10/150/3
f 10/150/3 14/154/3 13/153/3
f 13/153/3 15/155/3 12/152/3
f 13/153/3 16/156/3 15/155/3
f 15/155/3 16/156/3 17/157/3
f 17/157/3 18/158/3 15/155/3
f 17/157/3 19/159/10 18/158/3
f 19/159/10 17/157/3 20/160/3
f 20/160/3 21/161/3 19/159/10
f 13/153/3 22/162/11 16/156/3
f 22/162/11 23/163/3 16/156/3
f 22/162/11 24/164/3 23/163/3
f 25/165/12 26/166/12 27/167/12
f 27/167/12 28/168/12 25/165/12
f 29/169/13 30/170/13 31/171/13
f 31/171/13 32/172/13 29/169/13
f 31/171/13 33/173/13 32/172/13
f 33/173/13 34/174/13 32/172/13
f 35/175/13 36/176/13 37/177/13
f 37/177/13 38/178/13 35/175/13
f 37/177/13 28/179/13 38/178/13
f 28/179/13 27/180/13 38/178/13
f 18/24/4 39/23/4 33/181/4
f 33/181/4 40/182/4 18/24/4
f 33/181/4 31/183/4 40/182/4
f 18/24/4 40/182/4 41/100/4
f 41/100/4 15/99/4 18/24/4
f 42/184/4 43/185/4 44/186/4
f 44/186/4 45/187/4 42/184/4
f 46/188/1 44/189/1 47/190/1
f 47/190/1 29/191/1 46/188/1
f 47/190/1 30/192/1 29/191/1
f 47/193/14 40/194/14 31/195/14
f 31/195/14 30/196/14 47/193/14
f 48/197/13 49/198/13 50/199/13
f 50/199/13 51/200/13 48/197/13
f 50/199/13 52/201/13 51/200/13
f 50/199/13 45/202/13 52/201/13
f 45/202/13 44/203/13 52/201/13
f 44/203/13 46/204/13 52/201/13
f 41/126/5 40/205/5 47/206/5
f 47/206/5 11/127/5 41/126/5
f 47/206/5 43/207/5 11/127/5
f 43/207/5 4/208/5 11/127/5
f 47/206/5 44/209/1 43/207/5
f 43/207/5 53/210/5 4/208/5
f 42/211/5 45/212/5 50/213/5
f 50/213/5 54/214/5 42/211/5
f 55/215/5 56/216/5 57/217/5
f 57/217/5 58/218/5 55/215/5
f 59/62/5 60/219/5 61/220/5
f 61/220/5 8/63/5 59/62/5
f 61/220/5 62/221/5 8/63/5
f 62/221/5 7/42/5 8/63/5
f 62/221/5 63/43/5 7/42/5
f 64/222/2 48/223/2 51/224/2
f 51/224/2 65/225/2 64/222/2
f 51/224/2 66/226/2 65/225/2
f 67/227/3 68/228/3 53/229/3
f 53/229/3 54/230/3 67/227/3
f 53/229/3 42/231/3 54/230/3
f 53/229/3 43/232/3 42/231/3
f 62/233/13 61/234/13 65/235/13
f 65/235/13 55/236/13 62/233/13
f 65/235/13 66/237/13 55/236/13
f 62/233/13 55/236/13 58/238/13
f 67/239/4 54/240/4 50/241/4
f 50/241/4 49/242/4 67/239/4
f 5/15/4 4/243/4 53/244/4
f 53/244/4 59/16/4 5/15/4
f 53/244/4 68/245/4 59/16/4
f 68/245/4 60/246/4 59/16/4
f 68/245/4 48/247/4 60/246/4
f 48/247/4 64/248/4 60/246/4
f 60/249/12 64/250/12 65/251/12
f 65/251/12 61/252/12 60/249/12
f 56/253/14 36/254/14 35/255/14
f 35/255/14 57/256/14 56/253/14
f 67/257/5 49/258/5 48/259/5
f 48/259/5 68/260/5 67/257/5
f 32/261/4 34/262/4 26/263/4
f 26/263/4 25/264/4 32/261/4
f 32/265/5 25/266/5 28/267/5
f 28/267/5 29/268/5 32/265/5
f 28/267/5 46/269/5 29/268/5
f 28/267/5 52/270/5 46/269/5
f 28/267/5 37/271/5 52/270/5
f 51/272/4 52/273/4 37/274/4
f 37/274/4 66/275/4 51/272/4
f 37/274/4 55/276/4 66/275/4
f 37/274/4 56/277/4 55/276/4
f 37/274/4 36/278/4 56/277/4
f 33/279/2 39/29/2 21/32/2
f 21/32/2 34/280/2 33/279/2
f 21/32/2 20/49/2 34/280/2
f 20/49/2 26/281/2 34/280/2
f 20/49/2 27/282/2 26/281/2
f 20/49/2 38/283/2 27/282/2
f 20/49/2 23/52/2 38/283/2
f 23/52/2 24/85/2 38/283/2
f 24/85/2 69/88/2 38/283/2
f 2/4/1 63/3/1 62/284/1
f 62/284/1 13/139/1 2/4/1
f 62/284/1 58/285/1 13/139/1
f 13/139/1 58/285/1 38/286/1
f 38/286/1 69/140/1 13/139/1
f 58/285/1 57/287/1 38/286/1
f 57/287/1 35/288/1 38/286/1
f 2/4/1 13/139/1 14/84/1
f 14/84/1 3/83/1 2/4/1
