<svg fill="#FFFFFF" xmlns="http://www.w3.org/2000/svg" xmlns:xlink="http://www.w3.org/1999/xlink" version="1.1" x="0px" y="0px" viewBox="0 0 100 100" style="enable-background:new 0 0 100 100;" xml:space="preserve"><g><path d="M69.7,66.6V46.2c0-4.7-2.8-8.7-6.7-10.6c3.7-1.6,6.4-5.4,6.4-9.7c0-5.8-4.7-10.6-10.6-10.6H51v-2.7l0,0   c0.9-0.4,1.5-1.3,1.5-2.3c0-1.4-1.1-2.5-2.5-2.5s-2.5,1.1-2.5,2.5c0,1,0.6,1.9,1.5,2.3l0,0v2.7h-7.8c-5.8,0-10.6,4.7-10.6,10.6   c0,4.2,2.5,7.8,6.1,9.5c-4.1,1.8-7.1,5.9-7.1,10.8v20.4c0,4.8,2.9,8.9,7,10.7c-4.1,1.8-7,5.9-7,10.7c0,2.7,2.2,4.9,4.9,4.9h30.4   c2.7,0,4.9-2.2,4.9-4.9c0-4.8-2.9-8.9-7-10.7C66.8,75.5,69.7,71.4,69.7,66.6z M49.9,9.8c0.3,0,0.5,0.2,0.5,0.5s-0.2,0.5-0.5,0.5   s-0.5-0.2-0.5-0.5S49.6,9.8,49.9,9.8z M41.1,34.5c-4.7,0-8.6-3.8-8.6-8.6s3.8-8.6,8.6-8.6h17.6c4.7,0,8.6,3.8,8.6,8.6   s-3.8,8.6-8.6,8.6h-0.8H41.3H41.1z M67.3,85.6l-5.4,1.7L56,85.4c-0.2-0.1-0.4-0.1-0.6,0l-5.9,1.9l-5.9-1.9c-0.2-0.1-0.4-0.1-0.6,0   l-5.9,1.9l-5.3-1.7c0.2-0.8,0.5-1.6,1-2.4l4,1.3c0.2,0.1,0.4,0.1,0.6,0l5.9-1.9l5.9,1.9c0.2,0.1,0.4,0.1,0.6,0l5.9-1.9l5.9,1.9   c0.1,0,0.2,0,0.3,0s0.2,0,0.3,0l4.1-1.3C66.8,84,67.1,84.8,67.3,85.6z M64.8,91H34.4c-1.6,0-2.9-1.3-2.9-2.9c0-0.2,0-0.3,0-0.5   l5.3,1.7c0.2,0.1,0.4,0.1,0.6,0l5.9-1.9l5.9,1.9c0.2,0.1,0.4,0.1,0.6,0l5.9-1.9l5.9,1.9c0.1,0,0.2,0,0.3,0s0.2,0,0.3,0l5.4-1.7   c0,0.2,0,0.3,0,0.5C67.7,89.7,66.4,91,64.8,91z M65.1,81.5l-3.2,1L56,80.7c-0.2-0.1-0.4-0.1-0.6,0l-5.9,1.9l-5.9-1.9   c-0.2-0.1-0.4-0.1-0.6,0l-5.9,1.9l-3.1-1c1.8-2,4.3-3.2,7.2-3.2h16.7C60.8,78.4,63.3,79.6,65.1,81.5z M57.9,76.4H41.3   c-5.4,0-9.7-4.4-9.7-9.7V46.2c0-5.4,4.4-9.7,9.7-9.7H58c5.4,0,9.7,4.4,9.7,9.7v20.4C67.7,72,63.3,76.4,57.9,76.4z"></path><path d="M35.8,43.2c0.3,0,0.6-0.1,0.8-0.4c1.5-2,4.3-2.6,4.3-2.7c0.5-0.1,0.9-0.6,0.8-1.2c-0.1-0.5-0.6-0.9-1.2-0.8   c-0.1,0-3.5,0.8-5.5,3.4c-0.3,0.4-0.2,1.1,0.2,1.4C35.4,43.2,35.6,43.2,35.8,43.2z"></path><path d="M49.3,57.1c3.7,0,6.7-3,6.7-6.7s-3-6.7-6.7-6.7s-6.7,3-6.7,6.7S45.6,57.1,49.3,57.1z M54,50.4c0,1.5-0.7,2.8-1.8,3.6v-7.3   C53.3,47.6,54,48.9,54,50.4z M50.2,45.8v8.8c0,0.1,0,0.3,0.1,0.4c-0.3,0.1-0.7,0.1-1,0.1s-0.6,0-0.9-0.1c0.1-0.1,0.1-0.3,0.1-0.4   v-8.8c0.3,0,0.5-0.1,0.8-0.1C49.6,45.7,49.9,45.7,50.2,45.8z M46.5,46.7v7.4c-1.1-0.9-1.9-2.2-1.9-3.7S45.4,47.5,46.5,46.7z"></path><path d="M60.7,61.4H39.1c-1.9,0-3.5,1.6-3.5,3.5v0.9c0,1.9,1.6,3.5,3.5,3.5h21.7c1.9,0,3.5-1.6,3.5-3.5v-0.9   C64.2,62.9,62.7,61.4,60.7,61.4z M42.9,63.4h3.3v3.8v0.1h-3.4v-0.1v-3.8H42.9z M48.2,67.1v-3.8h3.3v3.8v0.1h-3.4   C48.2,67.2,48.2,67.2,48.2,67.1z M53.6,67.1v-3.8h3.3v3.8v0.1h-3.4C53.5,67.2,53.6,67.2,53.6,67.1z M37.6,65.7v-0.9   c0-0.8,0.7-1.5,1.5-1.5h1.8v3.8v0.1H39C38.2,67.2,37.6,66.6,37.6,65.7z M62.1,65.7c0,0.8-0.6,1.5-1.4,1.5h-1.9v-0.1v-3.8h1.8   c0.8,0,1.5,0.7,1.5,1.5V65.7L62.1,65.7z"></path><path d="M42.3,21.2c-2.6,0-4.8,2.2-4.8,4.8s2.2,4.8,4.8,4.8s4.8-2.2,4.8-4.8S44.9,21.2,42.3,21.2z M42.3,28.7   c-1.5,0-2.8-1.3-2.8-2.8s1.3-2.8,2.8-2.8s2.8,1.3,2.8,2.8S43.8,28.7,42.3,28.7z"></path><path d="M61.7,25.9c0-2.6-2.2-4.8-4.8-4.8s-4.8,2.2-4.8,4.8s2.2,4.8,4.8,4.8S61.7,28.6,61.7,25.9z M56.9,28.7   c-1.5,0-2.8-1.3-2.8-2.8s1.3-2.8,2.8-2.8s2.8,1.3,2.8,2.8S58.4,28.7,56.9,28.7z"></path><path d="M39.6,20.6c0.5-0.1,0.9-0.7,0.7-1.2c-0.1-0.5-0.7-0.9-1.2-0.7c-0.1,0-1.5,0.4-2.7,1.5c-0.4,0.4-0.4,1-0.1,1.4   c0.2,0.2,0.5,0.3,0.7,0.3s0.5-0.1,0.7-0.3C38.6,20.9,39.6,20.6,39.6,20.6z"></path></g></svg>